<svg xmlns="http://www.w3.org/2000/svg" width="220" height="220" fill="none" viewBox="0 0 220 220"><g filter="url(#filter0_iiii_10_152)"><circle cx="110" cy="110" r="103" fill="#F5F5FA"/></g><g filter="url(#filter1_dddd_10_152)"><circle cx="110" cy="110" r="77.25" fill="url(#paint0_radial_10_152)"/></g><path fill="#fff" d="M82.4223 102.167C82.2916 100.849 81.7308 99.8255 80.7398 99.0959C79.7488 98.3662 78.4039 98.0014 76.705 98.0014C75.5506 98.0014 74.576 98.1648 73.781 98.4915C72.986 98.8073 72.3762 99.2483 71.9514 99.8146C71.5376 100.381 71.3307 101.023 71.3307 101.742C71.3089 102.341 71.4342 102.864 71.7064 103.31C71.9896 103.757 72.3762 104.143 72.8662 104.47C73.3563 104.786 73.9226 105.064 74.5651 105.303C75.2076 105.532 75.8937 105.728 76.6233 105.891L79.629 106.61C81.0883 106.937 82.4278 107.372 83.6475 107.917C84.8672 108.461 85.9235 109.131 86.8165 109.926C87.7095 110.721 88.401 111.658 88.8911 112.736C89.392 113.814 89.6479 115.05 89.6588 116.444C89.6479 118.491 89.1252 120.266 88.0906 121.769C87.067 123.261 85.5859 124.421 83.6475 125.249C81.7199 126.065 79.3949 126.474 76.6723 126.474C73.9716 126.474 71.6193 126.06 69.6155 125.232C67.6226 124.405 66.0653 123.179 64.9436 121.557C63.8328 119.923 63.2502 117.903 63.1958 115.496H70.0402C70.1164 116.618 70.4377 117.555 71.004 118.306C71.5812 119.047 72.3489 119.607 73.3073 119.989C74.2765 120.359 75.3709 120.544 76.5906 120.544C77.7886 120.544 78.8286 120.37 79.7107 120.021C80.6037 119.673 81.2952 119.188 81.7852 118.567C82.2753 117.947 82.5203 117.233 82.5203 116.428C82.5203 115.676 82.2971 115.045 81.8506 114.533C81.415 114.021 80.7725 113.585 79.923 113.226C79.0845 112.866 78.0554 112.54 76.8357 112.246L73.1929 111.331C70.3724 110.645 68.1453 109.572 66.5118 108.113C64.8783 106.654 64.067 104.688 64.0779 102.216C64.067 100.19 64.606 98.4207 65.695 96.907C66.795 95.3932 68.3032 94.2116 70.2199 93.3622C72.1366 92.5128 74.3146 92.0881 76.754 92.0881C79.237 92.0881 81.4041 92.5128 83.2554 93.3622C85.1176 94.2116 86.566 95.3932 87.6006 96.907C88.6352 98.4207 89.1688 100.174 89.2014 102.167H82.4223ZM125.159 109.273C125.159 112.921 124.468 116.025 123.085 118.584C121.713 121.143 119.84 123.098 117.465 124.448C115.102 125.788 112.445 126.457 109.494 126.457C106.521 126.457 103.853 125.782 101.49 124.432C99.1265 123.081 97.2588 121.127 95.8866 118.567C94.5145 116.008 93.8284 112.91 93.8284 109.273C93.8284 105.625 94.5145 102.521 95.8866 99.9616C97.2588 97.4025 99.1265 95.4531 101.49 94.1136C103.853 92.7633 106.521 92.0881 109.494 92.0881C112.445 92.0881 115.102 92.7633 117.465 94.1136C119.84 95.4531 121.713 97.4025 123.085 99.9616C124.468 102.521 125.159 105.625 125.159 109.273ZM117.988 109.273C117.988 106.91 117.634 104.917 116.926 103.294C116.229 101.671 115.244 100.441 113.97 99.6023C112.696 98.7637 111.204 98.3445 109.494 98.3445C107.784 98.3445 106.292 98.7637 105.018 99.6023C103.744 100.441 102.753 101.671 102.045 103.294C101.348 104.917 101 106.91 101 109.273C101 111.636 101.348 113.629 102.045 115.251C102.753 116.874 103.744 118.105 105.018 118.943C106.292 119.782 107.784 120.201 109.494 120.201C111.204 120.201 112.696 119.782 113.97 118.943C115.244 118.105 116.229 116.874 116.926 115.251C117.634 113.629 117.988 111.636 117.988 109.273ZM148.547 102.167C148.417 100.849 147.856 99.8255 146.865 99.0959C145.874 98.3662 144.529 98.0014 142.83 98.0014C141.676 98.0014 140.701 98.1648 139.906 98.4915C139.111 98.8073 138.501 99.2483 138.076 99.8146C137.663 100.381 137.456 101.023 137.456 101.742C137.434 102.341 137.559 102.864 137.831 103.31C138.115 103.757 138.501 104.143 138.991 104.47C139.481 104.786 140.048 105.064 140.69 105.303C141.333 105.532 142.019 105.728 142.748 105.891L145.754 106.61C147.213 106.937 148.553 107.372 149.772 107.917C150.992 108.461 152.049 109.131 152.941 109.926C153.834 110.721 154.526 111.658 155.016 112.736C155.517 113.814 155.773 115.05 155.784 116.444C155.773 118.491 155.25 120.266 154.216 121.769C153.192 123.261 151.711 124.421 149.772 125.249C147.845 126.065 145.52 126.474 142.797 126.474C140.097 126.474 137.744 126.06 135.741 125.232C133.748 124.405 132.19 123.179 131.069 121.557C129.958 119.923 129.375 117.903 129.321 115.496H136.165C136.241 116.618 136.563 117.555 137.129 118.306C137.706 119.047 138.474 119.607 139.432 119.989C140.401 120.359 141.496 120.544 142.716 120.544C143.914 120.544 144.954 120.37 145.836 120.021C146.729 119.673 147.42 119.188 147.91 118.567C148.4 117.947 148.645 117.233 148.645 116.428C148.645 115.676 148.422 115.045 147.976 114.533C147.54 114.021 146.897 113.585 146.048 113.226C145.209 112.866 144.18 112.54 142.961 112.246L139.318 111.331C136.497 110.645 134.27 109.572 132.637 108.113C131.003 106.654 130.192 104.688 130.203 102.216C130.192 100.19 130.731 98.4207 131.82 96.907C132.92 95.3932 134.428 94.2116 136.345 93.3622C138.262 92.5128 140.44 92.0881 142.879 92.0881C145.362 92.0881 147.529 92.5128 149.38 93.3622C151.243 94.2116 152.691 95.3932 153.726 96.907C154.76 98.4207 155.294 100.174 155.326 102.167H148.547Z"/><defs><filter id="filter0_iiii_10_152" width="227.458" height="227.458" x="-3.729" y="-3.729" color-interpolation-filters="sRGB" filterUnits="userSpaceOnUse"><feFlood flood-opacity="0" result="BackgroundImageFix"/><feBlend in="SourceGraphic" in2="BackgroundImageFix" mode="normal" result="shape"/><feColorMatrix in="SourceAlpha" result="hardAlpha" type="matrix" values="0 0 0 0 0 0 0 0 0 0 0 0 0 0 0 0 0 0 127 0"/><feOffset dx="-10.729" dy="-10.729"/><feGaussianBlur stdDeviation="10.729"/><feComposite in2="hardAlpha" k2="-1" k3="1" operator="arithmetic"/><feColorMatrix type="matrix" values="0 0 0 0 1 0 0 0 0 1 0 0 0 0 1 0 0 0 1 0"/><feBlend in2="shape" mode="normal" result="effect1_innerShadow_10_152"/><feColorMatrix in="SourceAlpha" result="hardAlpha" type="matrix" values="0 0 0 0 0 0 0 0 0 0 0 0 0 0 0 0 0 0 127 0"/><feOffset dx="10.729" dy="10.729"/><feGaussianBlur stdDeviation="10.729"/><feComposite in2="hardAlpha" k2="-1" k3="1" operator="arithmetic"/><feColorMatrix type="matrix" values="0 0 0 0 0.666667 0 0 0 0 0.666667 0 0 0 0 0.8 0 0 0 0.5 0"/><feBlend in2="effect1_innerShadow_10_152" mode="normal" result="effect2_innerShadow_10_152"/><feColorMatrix in="SourceAlpha" result="hardAlpha" type="matrix" values="0 0 0 0 0 0 0 0 0 0 0 0 0 0 0 0 0 0 127 0"/><feOffset dx="5.365" dy="5.365"/><feGaussianBlur stdDeviation="5.365"/><feComposite in2="hardAlpha" k2="-1" k3="1" operator="arithmetic"/><feColorMatrix type="matrix" values="0 0 0 0 0.666667 0 0 0 0 0.666667 0 0 0 0 0.8 0 0 0 0.25 0"/><feBlend in2="effect2_innerShadow_10_152" mode="normal" result="effect3_innerShadow_10_152"/><feColorMatrix in="SourceAlpha" result="hardAlpha" type="matrix" values="0 0 0 0 0 0 0 0 0 0 0 0 0 0 0 0 0 0 127 0"/><feOffset dx="-5.365" dy="-5.365"/><feGaussianBlur stdDeviation="5.365"/><feComposite in2="hardAlpha" k2="-1" k3="1" operator="arithmetic"/><feColorMatrix type="matrix" values="0 0 0 0 1 0 0 0 0 1 0 0 0 0 1 0 0 0 0.5 0"/><feBlend in2="effect3_innerShadow_10_152" mode="normal" result="effect4_innerShadow_10_152"/></filter><filter id="filter1_dddd_10_152" width="218.875" height="218.875" x=".562" y=".562" color-interpolation-filters="sRGB" filterUnits="userSpaceOnUse"><feFlood flood-opacity="0" result="BackgroundImageFix"/><feColorMatrix in="SourceAlpha" result="hardAlpha" type="matrix" values="0 0 0 0 0 0 0 0 0 0 0 0 0 0 0 0 0 0 127 0"/><feOffset dx="-10.729" dy="-10.729"/><feGaussianBlur stdDeviation="10.729"/><feColorMatrix type="matrix" values="0 0 0 0 1 0 0 0 0 1 0 0 0 0 1 0 0 0 1 0"/><feBlend in2="BackgroundImageFix" mode="normal" result="effect1_dropShadow_10_152"/><feColorMatrix in="SourceAlpha" result="hardAlpha" type="matrix" values="0 0 0 0 0 0 0 0 0 0 0 0 0 0 0 0 0 0 127 0"/><feOffset dx="10.729" dy="10.729"/><feGaussianBlur stdDeviation="10.729"/><feColorMatrix type="matrix" values="0 0 0 0 0.666667 0 0 0 0 0.666667 0 0 0 0 0.8 0 0 0 0.5 0"/><feBlend in2="effect1_dropShadow_10_152" mode="normal" result="effect2_dropShadow_10_152"/><feColorMatrix in="SourceAlpha" result="hardAlpha" type="matrix" values="0 0 0 0 0 0 0 0 0 0 0 0 0 0 0 0 0 0 127 0"/><feOffset dx="5.365" dy="5.365"/><feGaussianBlur stdDeviation="5.365"/><feColorMatrix type="matrix" values="0 0 0 0 0.666667 0 0 0 0 0.666667 0 0 0 0 0.8 0 0 0 0.25 0"/><feBlend in2="effect2_dropShadow_10_152" mode="normal" result="effect3_dropShadow_10_152"/><feColorMatrix in="SourceAlpha" result="hardAlpha" type="matrix" values="0 0 0 0 0 0 0 0 0 0 0 0 0 0 0 0 0 0 127 0"/><feOffset dx="-5.365" dy="-5.365"/><feGaussianBlur stdDeviation="5.365"/><feColorMatrix type="matrix" values="0 0 0 0 1 0 0 0 0 1 0 0 0 0 1 0 0 0 0.5 0"/><feBlend in2="effect3_dropShadow_10_152" mode="normal" result="effect4_dropShadow_10_152"/><feBlend in="SourceGraphic" in2="effect4_dropShadow_10_152" mode="normal" result="shape"/></filter><radialGradient id="paint0_radial_10_152" cx="0" cy="0" r="1" gradientTransform="translate(110 110) rotate(90) scale(77.25)" gradientUnits="userSpaceOnUse"><stop stop-color="#FFAD59"/><stop offset="1" stop-color="#FF7E7B"/></radialGradient></defs></svg>