<svg xmlns="http://www.w3.org/2000/svg" width="73" height="79" fill="none" viewBox="0 0 73 79"><g filter="url(#filter0_ddd_1511_20472)"><g filter="url(#filter1_b_1511_20472)"><circle cx="22.257" cy="22.257" r="20.757" stroke="url(#paint0_linear_1511_20472)" stroke-width="3" transform="matrix(1 0 0 -1 16.1123 60.3516)"/></g><path fill="url(#paint1_linear_1511_20472)" stroke="url(#paint2_linear_1511_20472)" stroke-width=".5" d="M32.064 34.9665C32.8291 31.3975 10.2889 24.9067 9.29991 2.26562C7.02501 9.39379 8.07401 13.8962 14.1779 22.8617C11.0258 20.5109 9.89794 18.827 8.2159 15.635C9.86423 21.4227 11.3664 24.4957 16.7073 29.1851C10.5672 26.753 7.9122 24.4493 4.24121 19.0677C5.5995 24.7398 7.22072 27.5978 14.1779 31.1725C12.5737 31.5314 11.4631 31.1346 9.29991 29.9078C13.3921 33.3949 16.0615 34.7332 21.5853 35.8698C17.0528 37.6973 14.2894 36.3646 9.29991 33.3405C13.6246 38.9757 16.7917 41.1023 26.4633 39.3025C24.2435 41.4437 22.2658 42.1649 15.9846 41.6512C18.7351 43.7104 29.8511 45.8045 32.064 34.9665Z"/><path fill="url(#paint3_linear_1511_20472)" stroke="url(#paint4_linear_1511_20472)" stroke-width=".5" d="M40.936 33.7009C40.1709 30.1318 62.7111 23.6411 63.7001 1C65.975 8.12816 64.926 12.6306 58.8221 21.5961C61.9742 19.2453 63.1021 17.5614 64.7841 14.3694C63.1358 20.157 61.6336 23.2301 56.2927 27.9195C62.4328 25.4873 65.0878 23.1836 68.7588 17.8021C67.4005 23.4741 65.7793 26.3322 58.8221 29.9068C60.4263 30.2657 61.5369 29.869 63.7001 28.6422C59.6079 32.1292 56.9385 33.4676 51.4147 34.6042C56.5933 36.7232 59.744 35.5651 63.7001 32.0748C59.3754 37.7101 56.2083 39.8367 46.5367 38.0369C48.7565 40.178 50.7342 40.8993 57.0154 40.3856C54.2649 42.4448 43.1489 44.5389 40.936 33.7009Z"/><path fill="url(#paint5_linear_1511_20472)" d="M26.6455 44.3595C29.1115 44.0212 30.4222 43.7319 31.8849 42.0108C32.6544 43.7534 33.4913 44.176 35.1369 44.7208C33.2235 42.9098 32.5111 41.7233 31.8849 39.3008C31.1916 41.3842 29.9789 42.4871 26.6455 44.3595Z"/><path fill="url(#paint6_linear_1511_20472)" stroke="url(#paint7_linear_1511_20472)" stroke-width=".5" d="M49.5882 43.6374C39.2415 40.682 33.4625 30.2409 45.7942 23.7639H41.8195C37.4613 23.0231 37.5918 25.659 31.7021 30.6293L35.4962 29.5453C28.0752 45.7141 42.4053 41.6683 36.7608 57.0068C39.1862 54.4148 39.8913 52.44 40.5549 46.7087C41.8054 53.0146 41.0087 56.6698 36.7608 63.3302C42.1797 59.1985 44.0081 56.1353 42.9035 47.9734C47.0587 56.7904 46.0005 61.7681 34.9542 70.7375C49.9882 62.7007 52.1055 54.5227 41.8195 42.192L49.5882 43.6374Z"/><ellipse cx="39.755" cy="25.083" fill="#fff" rx=".947" ry=".361" transform="rotate(-15.2815 39.7555 25.0834)"/></g><defs><filter id="filter0_ddd_1511_20472" width="73.004" height="78.034" x="-.002" y=".924" color-interpolation-filters="sRGB" filterUnits="userSpaceOnUse"><feFlood flood-opacity="0" result="BackgroundImageFix"/><feColorMatrix in="SourceAlpha" result="hardAlpha" type="matrix" values="0 0 0 0 0 0 0 0 0 0 0 0 0 0 0 0 0 0 127 0"/><feOffset dy="4"/><feGaussianBlur stdDeviation="2"/><feComposite in2="hardAlpha" operator="out"/><feColorMatrix type="matrix" values="0 0 0 0 0 0 0 0 0 0 0 0 0 0 0 0 0 0 0.25 0"/><feBlend in2="BackgroundImageFix" mode="normal" result="effect1_dropShadow_1511_20472"/><feColorMatrix in="SourceAlpha" result="hardAlpha" type="matrix" values="0 0 0 0 0 0 0 0 0 0 0 0 0 0 0 0 0 0 127 0"/><feOffset dy="4"/><feGaussianBlur stdDeviation="2"/><feComposite in2="hardAlpha" operator="out"/><feColorMatrix type="matrix" values="0 0 0 0 0 0 0 0 0 0 0 0 0 0 0 0 0 0 0.25 0"/><feBlend in2="effect1_dropShadow_1511_20472" mode="normal" result="effect2_dropShadow_1511_20472"/><feColorMatrix in="SourceAlpha" result="hardAlpha" type="matrix" values="0 0 0 0 0 0 0 0 0 0 0 0 0 0 0 0 0 0 127 0"/><feOffset dy="4"/><feGaussianBlur stdDeviation="2"/><feComposite in2="hardAlpha" operator="out"/><feColorMatrix type="matrix" values="0 0 0 0 0 0 0 0 0 0 0 0 0 0 0 0 0 0 0.25 0"/><feBlend in2="effect2_dropShadow_1511_20472" mode="normal" result="effect3_dropShadow_1511_20472"/><feBlend in="SourceGraphic" in2="effect3_dropShadow_1511_20472" mode="normal" result="shape"/></filter><filter id="filter1_b_1511_20472" width="52.513" height="52.513" x="12.112" y="11.838" color-interpolation-filters="sRGB" filterUnits="userSpaceOnUse"><feFlood flood-opacity="0" result="BackgroundImageFix"/><feGaussianBlur in="BackgroundImageFix" stdDeviation="2"/><feComposite in2="SourceAlpha" operator="in" result="effect1_backgroundBlur_1511_20472"/><feBlend in="SourceGraphic" in2="effect1_backgroundBlur_1511_20472" mode="normal" result="shape"/></filter><linearGradient id="paint0_linear_1511_20472" x1="1.763" x2="44.987" y1="9.471" y2="10.559" gradientUnits="userSpaceOnUse"><stop stop-color="#C52ABE"/><stop offset="1" stop-color="#1F95D7" stop-opacity=".66"/></linearGradient><linearGradient id="paint1_linear_1511_20472" x1="8.758" x2="30.438" y1="8.589" y2="38.941" gradientUnits="userSpaceOnUse"><stop stop-color="#FF1919"/><stop offset="1" stop-color="#0E46D6"/></linearGradient><linearGradient id="paint2_linear_1511_20472" x1="13.259" x2="31.759" y1="30.37" y2="36.37" gradientUnits="userSpaceOnUse"><stop stop-color="#fff"/><stop offset="1" stop-color="#fff" stop-opacity="0"/></linearGradient><linearGradient id="paint3_linear_1511_20472" x1="64.242" x2="42.562" y1="7.323" y2="37.675" gradientUnits="userSpaceOnUse"><stop stop-color="#FF1919"/><stop offset="1" stop-color="#0E46D6"/></linearGradient><linearGradient id="paint4_linear_1511_20472" x1="65.259" x2="42.259" y1="29.369" y2="34.869" gradientUnits="userSpaceOnUse"><stop stop-color="#fff"/><stop offset=".927" stop-color="#fff" stop-opacity="0"/></linearGradient><linearGradient id="paint5_linear_1511_20472" x1="28.023" x2="29.732" y1="40.136" y2="45.66" gradientUnits="userSpaceOnUse"><stop stop-color="#FF1919"/><stop offset=".433" stop-color="#0E46D6"/></linearGradient><linearGradient id="paint6_linear_1511_20472" x1="34.604" x2="60.141" y1="30.897" y2="50.913" gradientUnits="userSpaceOnUse"><stop stop-color="#0E46D6"/><stop offset="1" stop-color="#FF1919"/></linearGradient><linearGradient id="paint7_linear_1511_20472" x1="41.741" x2="40.241" y1="71" y2="42" gradientUnits="userSpaceOnUse"><stop offset=".775" stop-color="#fff"/><stop offset="1" stop-color="#fff" stop-opacity="0"/></linearGradient></defs></svg>